<?xml version="1.0" encoding="utf-8"?>
<!-- Svg Vector Icons : http://www.onlinewebfonts.com/icon -->
<!DOCTYPE svg PUBLIC "-//W3C//DTD SVG 1.1//EN" "http://www.w3.org/Graphics/SVG/1.1/DTD/svg11.dtd">
<svg fill="#F8D0CB" version="1.1" xmlns="http://www.w3.org/2000/svg" xmlns:xlink="http://www.w3.org/1999/xlink" x="0px" y="0px" viewBox="0 0 1000 1000" enable-background="new 0 0 1000 1000" xml:space="preserve">
<metadata> Svg Vector Icons : http://www.onlinewebfonts.com/icon </metadata>
<g><g><path d="M276,506.5c-10.3,43.2-41.7,86.6-41.7,86.6s-112.5,11.6-141-37.8l-36-62.2c29.6,1.8,68.6-13.1,100.9-31.8c7.7-4.4,15.4-9.4,22.9-14.6c7.5,0.5,15.4,1.4,20.5,2.9C221.2,455.5,256,470.8,276,506.5z M133.9,430.1c-1.1-30.4,18.5-52.7,32.8-58.8c15.1-6.4,32.5-9.4,54.9-9.4c4.1,0,7.9,0.4,12,0.5c0.3-5.5-0.2-10.7-3-15.5c-33.1-57.3-92.4-52.8-149.7-19.8L36.6,267l-11.4,39.4l41.4,30.1C18.4,369.2-7.2,414.5,23,466.8c14.8,25.6,64.5,15.8,112-8L133.9,430.1z M985.4,305.4c-45.8-64.6-138-87.1-173.4-35c-24.7,36.4-10.4,92.3,43,162.2c66.9,87.5,79.5,159.7,57.3,237c-47.4,165-181.9,187.7-308.7,217.9c-76.5,59.6-179.9,57-208.2,75c-12.2,7.8-43.1,7.1-49.4,3c-6.3-4.1,12.1-11.8,17.3-15c-14.3,0.4-28,4.9-39.4,9.1c3-11.9,23.4-39,34.1-38.3c-19.8-19-77-16-123-2.3c-0.8-15.8,5.9-29,19.1-35.8c14.9-7.7,25.1-11.3,54.6-16.1c0.3-31-43.6-60.6-50.1-102.3c-14.3-92.2,40.6-106,49.4-165.3c18.3-124.8-76.5-161-100.6-168.3c-14.1-4.3-42.9-8.4-54.3-1.9c-0.8-21.5,13.3-37.1,21.3-40.5c43.4-18.5,105.7,3.1,120.7-9.9c1-24,7.9-60.3,12.4-72.6c5.9-16.3-54.4,11.4-85.7-18.8c-10.6-10.3-35-16.7-35.3-36.9c-0.7-40.2,67.8-87.7,131.4-116.3c-1.3-8.5-0.7-68.1,20.8-58.9c21.5,9.2,36.2,32,36.2,32S401,18,421.3,33.2c20.3,15.2,26.2,98.2,34.1,112.1c7.9,13.9,24.4,12.5,40.7,50.7c24.9,58.4-8.6,73.3,15.4,115.6c45,79.1,188.7,220.2,178,391.3c-1.8,29.7-7,55.2-14,77.9c0.1,0,0.2,0.1,0.2,0.1c82.9-229.8-72.1-372-125.2-521.6C573.4,169.5,625.4,89,721.5,58.7C863,14.3,1018.9,125.6,985.4,305.4z M319.4,185.2c-5.2-9.1-20.9-9.9-35-1.7c-14.1,8.2-21.2,22.1-16,31.2c5.2,9.1,20.9,9.9,35,1.8C317.4,208.3,324.6,194.3,319.4,185.2z M281.6,188.2c-9,5.2-12.9,15-9,21.9c4,6.9,14.5,8.3,23.4,3.2c9-5.2,13-15,9-21.9C301,184.4,290.5,182.9,281.6,188.2z"/></g><g></g><g></g><g></g><g></g><g></g><g></g><g></g><g></g><g></g><g></g><g></g><g></g><g></g><g></g><g></g></g>
</svg>